<?xml version="1.0" encoding="UTF-8" standalone="no"?>
<!-- Created with Inkscape (http://www.inkscape.org/) -->

<svg
   width="626.39203"
   height="660.92694"
   viewBox="0 0 165.7329 174.87026"
   version="1.1"
   id="svg5"
   inkscape:version="1.1 (c68e22c387, 2021-05-23)"
   sodipodi:docname="divisibill_scalable_red.svg"
   xmlns:inkscape="http://www.inkscape.org/namespaces/inkscape"
   xmlns:sodipodi="http://sodipodi.sourceforge.net/DTD/sodipodi-0.dtd"
   xmlns="http://www.w3.org/2000/svg"
   xmlns:svg="http://www.w3.org/2000/svg">
  <sodipodi:namedview
     id="namedview7"
     pagecolor="#646464"
     bordercolor="#ffffff"
     borderopacity="1"
     inkscape:pageshadow="0"
     inkscape:pageopacity="0"
     inkscape:pagecheckerboard="1"
     inkscape:document-units="px"
     showgrid="false"
     inkscape:zoom="0.83972969"
     inkscape:cx="312.60059"
     inkscape:cy="311.40973"
     inkscape:window-width="2254"
     inkscape:window-height="1371"
     inkscape:window-x="1445"
     inkscape:window-y="30"
     inkscape:window-maximized="0"
     inkscape:current-layer="layer1"
     fit-margin-top="0"
     fit-margin-left="0"
     fit-margin-right="0"
     fit-margin-bottom="0" />
  <defs
     id="defs2" />
  <g
     inkscape:label="Layer 1"
     inkscape:groupmode="layer"
     id="layer1"
     transform="translate(13.233426,14.358573)">
    <rect
       style="opacity:0.7;fill:#ff0000;fill-opacity:1;fill-rule:evenodd;stroke-width:6.00001;stroke-linecap:round"
       id="rect846"
       width="165.73289"
       height="174.87025"
       x="-13.233426"
       y="-14.358573"
       ry="0.40637356" />
    <path
       id="rect142"
       style="fill:#ffffff;fill-rule:evenodd;stroke:none;stroke-width:0.999999"
       d="M 0,0 V 513.35938 H 195.74609 L 61.939453,292.41797 150.0625,0 Z m 212.73242,0 -85.64062,284.17188 138.80078,229.1875 h 246.14258 c -13.57309,-19.5628 -29.78515,-43.1997 -47.59375,-68.88282 -46.8271,-67.53297 -104.67579,-148.9801 -149.91016,-201.47461 l -12.46094,-14.46093 69.4336,-154.626958 c -0.86933,-2.402735 -1.22332,-3.221809 -2.42774,-6.5625 -3.50793,-9.730025 -8.02604,-22.454069 -12.8164,-36.253906 C 352.75898,21.012797 349.175,10.461032 345.67969,0 Z M 409.0293,0 c 1.31081,3.8281478 2.62976,7.7204135 3.91601,11.425781 4.70302,13.548132 9.14802,26.074291 12.57227,35.572266 3.42429,9.497979 6.52666,17.617109 6.10547,16.595703 l 4.92383,11.943359 -64.3418,143.289061 c 45.64391,55.03879 97.3661,127.79234 140.47461,189.9336 V 0 Z"
       transform="matrix(0.26458334,0,0,0.26458334,0,-0.17990263)" />
    <g
       id="g1663"
       transform="translate(105.62436,-3.2529486)">
      <path
         id="path1346"
         style="color:#000000;fill:#000000;stroke-width:3.77953;stroke-linecap:round;-inkscape-stroke:none"
         d="M 282.47266,37.5 201.08008,38.664062 185.96289,88.828125 283.18164,87.4375 A 24.971147,24.971147 0 0 0 307.79883,62.117188 24.971147,24.971147 0 0 0 282.47266,37.5 Z m 182.125,0.751953 -41.96289,0.285156 c 1.00775,2.823773 2.11528,5.952269 3,8.40625 3.42429,9.497979 6.5247,17.615156 6.10351,16.59375 L 436.66211,75.482422 431.5,86.978516 464.93164,86.751953 A 24.249071,24.249071 0 0 0 489.01758,62.332031 24.249071,24.249071 0 0 0 464.59766,38.251953 Z M 138.14062,39.5625 40.353516,40.960938 A 24.971147,24.971147 0 0 0 15.742188,66.289062 24.971147,24.971147 0 0 0 41.0625,90.900391 l 81.95898,-1.171875 z m 221.23243,0.02734 a 24.249071,24.249071 0 0 0 -18.65039,23.753906 24.249071,24.249071 0 0 0 24.41211,24.085938 l 0.39257,-0.002 6.09375,-13.570312 c -0.8693,-2.402736 -1.2253,-3.221809 -2.42968,-6.5625 -2.74512,-7.6142 -6.19002,-17.343556 -9.81836,-27.705078 z m -76.90039,91.99805 -109.8711,1.57031 -15.11718,50.16407 125.69726,-1.79688 a 24.971147,24.971147 0 0 0 24.61719,-25.32031 24.971147,24.971147 0 0 0 -25.32617,-24.61719 z m 182.125,0.75195 -53.62891,0.36524 -21.8457,48.65039 75.80859,-0.51563 a 24.249071,24.249071 0 0 0 24.08594,-24.41992 24.249071,24.249071 0 0 0 -24.41992,-24.08008 z m -354.93555,1.71875 -69.308594,0.99024 A 24.971147,24.971147 0 0 0 15.742188,160.37695 24.971147,24.971147 0 0 0 41.0625,184.98828 l 53.482422,-0.76562 z m 172.81055,91.61524 -138.34766,1.97851 -15.11914,50.16602 154.17578,-2.20508 a 24.971147,24.971147 0 0 0 24.61719,-25.32031 24.971147,24.971147 0 0 0 -25.32617,-24.61914 z m 182.125,0.7539 -85.51954,0.58204 c 12.31226,15.11055 24.99363,31.34836 37.79102,48.24414 l 48.0625,-0.32813 a 24.249071,24.249071 0 0 0 24.08594,-24.41797 24.249071,24.249071 0 0 0 -24.41992,-24.08008 z m -383.412113,2.125 -40.832031,0.58399 A 24.971147,24.971147 0 0 0 15.742188,254.46484 24.971147,24.971147 0 0 0 41.0625,279.07617 l 25.005859,-0.35742 z m 201.287113,91.20899 -132.67774,1.89844 29.99024,49.51953 103.39648,-1.47852 a 24.971147,24.971147 0 0 0 24.61719,-25.32031 24.971147,24.971147 0 0 0 -25.32617,-24.61914 z m 182.125,0.7539 -14.17188,0.0957 c 10.25467,14.11998 20.42849,28.30966 30.35742,42.35156 a 24.249071,24.249071 0 0 0 8.23438,-18.36719 24.249071,24.249071 0 0 0 -24.41992,-24.08008 z m -88.13282,0.59961 -11.65429,0.0801 a 24.249071,24.249071 0 0 0 -24.08789,24.41016 24.249071,24.249071 0 0 0 24.41211,24.08789 l 46.57812,-0.31641 c -11.71475,-16.3271 -23.53582,-32.56378 -35.24805,-48.26172 z M 80.251953,322.6543 40.353516,323.22461 A 24.971147,24.971147 0 0 0 15.742188,348.55078 24.971147,24.971147 0 0 0 41.0625,373.16211 l 69.17773,-0.98828 z m 202.220707,91.19531 -76.18555,1.08984 29.99023,49.51953 46.9043,-0.66992 a 24.971147,24.971147 0 0 0 24.61719,-25.32031 24.971147,24.971147 0 0 0 -25.32617,-24.61914 z m 161.39257,0.89453 -79.05468,0.53711 a 24.249071,24.249071 0 0 0 -24.08789,24.41211 24.249071,24.249071 0 0 0 24.41211,24.08789 l 99.79687,-0.67969 a 24.249071,24.249071 0 0 0 10.73438,-2.59765 c -3.79954,-5.49962 -7.14078,-10.36143 -11.10743,-16.08203 -6.68288,-9.6379 -13.63018,-19.59768 -20.69336,-29.67774 z m -307.12109,1.18945 -96.390624,1.37891 A 24.971147,24.971147 0 0 0 15.742188,442.63867 24.971147,24.971147 0 0 0 41.0625,467.25 l 125.67188,-1.79688 z"
         transform="matrix(0.26458334,0,0,0.26458334,-105.62436,3.073046)" />
    </g>
  </g>
</svg>
